# Blender v3.5.1 OBJ File: ''
# www.blender.org
mtllib tree2.mtl
o Cylinder
v 0.000000 -0.095566 -0.234280
v 0.000000 0.252964 -0.277201
v 0.263634 0.252964 -0.085660
v 0.222814 -0.095566 -0.072397
v 0.162935 0.252964 0.224260
v 0.137706 -0.095566 0.189537
v -0.162935 0.252964 0.224260
v -0.137706 -0.095566 0.189537
v -0.263634 0.252964 -0.085660
v -0.222814 -0.095566 -0.072397
v 0.000000 -0.404747 -0.277201
v 0.263634 -0.404747 -0.085660
v 0.162935 -0.404747 0.224260
v -0.162935 -0.404747 0.224260
v -0.263634 -0.404747 -0.085660
v 1.013997 0.029115 -0.329469
v 0.626685 0.100627 0.862556
v 0.196269 2.606613 0.125754
v 0.364391 2.442909 -0.296286
v 0.117554 3.101361 -0.443498
v 0.072652 3.147329 -0.313175
v -1.013997 0.029115 -0.329469
v 0.000000 0.100627 -1.066180
v -0.626684 0.100627 0.862556
v -0.072652 3.147329 -0.313175
v 0.019775 3.483121 -0.571745
v -0.019775 3.483121 -0.571745
v 0.000000 2.420726 -0.569195
v -0.364391 2.442909 -0.296286
v -0.117554 3.101361 -0.443498
v 0.000000 3.072951 -0.524042
v -0.225206 2.651286 0.084447
v -1.020386 0.063320 -0.331544
v -0.630634 0.132893 0.867992
v -0.378646 0.730474 0.521162
v -0.612662 0.730474 -0.199066
v -0.886628 0.661793 -0.288267
v -0.547966 0.733685 0.753976
v -0.300034 1.367073 0.407843
v -0.485465 1.331651 -0.161755
v -0.537213 1.579511 -0.166313
v -0.332016 1.699406 0.454327
v -0.221422 2.025864 0.254124
v -0.358268 1.932732 -0.156619
v -0.539460 1.855029 -0.200864
v -0.333405 2.065010 0.401703
v -0.142810 2.608607 -0.020756
v -0.231071 2.518248 -0.276927
v 1.020386 0.063320 -0.331544
v 0.000000 0.132893 -1.072898
v 0.000000 0.730474 -0.644191
v 0.612662 0.730474 -0.199066
v 0.886628 0.653833 -0.288267
v 0.000000 0.731055 -0.932409
v 0.000000 1.309759 -0.513786
v 0.485465 1.331651 -0.161755
v 0.537213 1.579511 -0.166313
v 0.000000 1.557372 -0.555908
v 0.000000 1.875174 -0.410472
v 0.358268 1.932732 -0.156619
v 0.539461 1.855029 -0.200864
v 0.000000 1.835659 -0.598304
v 0.000000 2.462402 -0.435249
v 0.231071 2.518248 -0.276926
v 0.630634 0.132893 0.867993
v 0.378646 0.730474 0.521162
v 0.547966 0.664124 0.753976
v 0.300034 1.367073 0.407843
v 0.332016 1.711097 0.452972
v 0.221422 2.025864 0.254124
v 0.333405 2.065010 0.401703
v 0.142810 2.608607 -0.020756
v -0.206354 2.608811 0.071505
v -0.333448 2.417521 -0.275796
v -0.000712 2.398279 -0.525355
v 0.332024 2.417521 -0.275796
v 0.178062 2.567331 0.109860
v 0.493045 1.811830 -0.178518
v 0.304719 2.003724 0.372294
v -0.493045 1.811830 -0.178518
v 0.000000 1.796346 -0.542318
v -0.304719 2.003724 0.372294
v 0.679572 1.225758 -0.218554
v 0.419999 1.345093 0.574453
v -0.679572 1.225758 -0.218555
v 0.000000 1.264863 -0.715678
v -0.419999 1.322802 0.575839
v 0.879671 0.608784 -0.285823
v 0.543666 0.617603 0.748292
v -0.879671 0.616885 -0.285824
v 0.000000 0.688398 -0.924942
v -0.543666 0.688398 0.748291
v 0.031996 3.470609 -0.607217
v 0.000000 3.462877 -0.629139
v -0.031996 3.470609 -0.607217
v 0.430023 1.392909 0.588049
v 0.695792 1.266486 -0.223021
v 0.000000 1.300486 -0.731624
v -0.695792 1.266486 -0.223021
v -0.430023 1.370760 0.589497
v -0.200429 2.628078 0.056061
v -0.323861 2.443097 -0.281514
v -0.000712 2.423613 -0.523601
v 0.322437 2.443097 -0.281514
v 0.173260 2.588333 0.092811
v 0.481311 1.837065 -0.181412
v 0.297467 2.024407 0.356220
v -0.481311 1.837065 -0.181412
v 0.000000 1.820193 -0.536114
v -0.297467 2.024407 0.356220
v -0.410572 1.354412 0.562838
v -0.664319 1.255867 -0.213100
v 0.000000 1.289571 -0.698777
v 0.664320 1.255867 -0.213100
v 0.410572 1.375698 0.561460
v 0.864218 0.634894 -0.280950
v 0.534116 0.644681 0.734958
v -0.864218 0.642689 -0.280950
v 0.000000 0.710690 -0.908816
v -0.534116 0.712796 0.734958
v 0.995265 0.059766 -0.323382
v 0.615108 0.128082 0.846622
v -0.995265 0.059766 -0.323382
v 0.000000 0.128082 -1.046485
v -0.615108 0.128082 0.846621
vn 0.5849 -0.0991 -0.8050
vn 0.9464 -0.0991 0.3075
vn 0.0000 -0.0991 0.9951
vn -0.9464 -0.0991 0.3075
vn -0.5849 -0.0991 -0.8050
vn 0.0000 -1.0000 0.0000
vn -0.5841 0.1116 -0.8040
vn -0.9451 0.1116 0.3071
vn 0.0000 0.1116 0.9938
vn 0.9451 0.1116 0.3071
vn 0.5841 0.1116 -0.8040
vn -0.2732 -0.9607 -0.0497
vn -0.2769 -0.9597 -0.0482
vn -0.2208 -0.9727 -0.0717
vn 0.9020 0.3786 0.2074
vn 0.9053 0.3795 0.1908
vn 0.9010 0.3783 0.2122
vn 0.1918 -0.9607 0.2008
vn 0.1957 -0.9597 0.2017
vn 0.1364 -0.9727 0.1878
vn -0.1918 -0.9607 0.2008
vn -0.1957 -0.9597 0.2017
vn -0.2174 -0.9539 0.2067
vn 0.0000 -0.9727 -0.2321
vn 0.2732 -0.9607 -0.0497
vn 0.2769 -0.9597 -0.0482
vn 0.2974 -0.9539 -0.0394
vn 0.0000 0.6101 0.7923
vn -0.5914 0.0465 -0.8050
vn -0.5705 0.0528 -0.8196
vn -0.5548 0.0575 -0.8300
vn -0.0082 0.6284 0.7778
vn -0.0034 0.6267 0.7793
vn 0.0000 0.6255 0.7803
vn 0.5914 0.0465 -0.8050
vn 0.5705 0.0528 -0.8196
vn 0.5971 0.0448 -0.8009
vn -0.9156 0.3784 0.1359
vn -0.9055 0.3959 0.1528
vn -0.9183 0.3736 0.1312
vn -0.8356 0.4851 0.2576
vn -0.8399 0.4794 0.2543
vn -0.8477 0.4688 0.2482
vn -0.8503 0.4653 0.2458
vn -0.8505 0.4651 0.2457
vn -0.8515 0.4637 0.2447
vn -0.8804 0.4291 0.2017
vn -0.8785 0.4326 0.2029
vn -0.8754 0.4379 0.2048
vn -0.8891 0.4312 0.1539
vn -0.8890 0.4313 0.1540
vn -0.8891 0.4311 0.1538
vn 0.5246 0.4851 -0.6996
vn 0.5300 0.4794 -0.6995
vn 0.5399 0.4688 -0.6991
vn 0.5279 0.4705 -0.7071
vn 0.5296 0.4741 -0.7034
vn 0.5137 0.4413 -0.7358
vn 0.5307 0.3142 -0.7872
vn 0.5351 0.3300 -0.7777
vn 0.5227 0.2869 -0.8028
vn 0.5639 0.1877 -0.8042
vn 0.5485 0.1969 -0.8126
vn 0.5795 0.1783 -0.7952
vn -0.0000 0.5020 0.8649
vn 0.0168 0.4621 0.8867
vn 0.0178 0.4610 0.8872
vn 0.0000 0.4795 0.8775
vn -0.0035 0.5297 0.8482
vn -0.0051 0.5277 0.8494
vn -0.0075 0.5246 0.8513
vn 0.0000 0.6136 0.7896
vn -0.5246 0.4851 -0.6996
vn -0.5300 0.4794 -0.6995
vn -0.5084 0.5020 -0.6997
vn -0.5255 0.4729 -0.7072
vn -0.5272 0.4764 -0.7036
vn -0.5357 0.4949 -0.6842
vn -0.5307 0.3142 -0.7872
vn -0.5351 0.3300 -0.7777
vn -0.5404 0.3501 -0.7651
vn -0.5639 0.1877 -0.8042
vn -0.5485 0.1969 -0.8126
vn -0.5159 0.2157 -0.8290
vn 0.8356 0.4851 0.2576
vn 0.8399 0.4794 0.2543
vn 0.8226 0.5020 0.2673
vn 0.8565 0.4432 0.2646
vn 0.8561 0.4437 0.2650
vn 0.8656 0.4309 0.2550
vn 0.8786 0.4354 0.1961
vn 0.8778 0.4367 0.1966
vn 0.8802 0.4326 0.1952
vn 0.8891 0.4312 0.1539
vn 0.8890 0.4313 0.1540
vn 0.8889 0.4314 0.1541
vn 0.4875 -0.8335 0.2601
vn 0.6453 -0.7590 0.0863
vn 0.7014 -0.7127 0.0098
vn -0.3792 -0.7140 0.5886
vn -0.4257 -0.5210 0.7398
vn -0.4375 -0.4296 0.7900
vn -0.0823 -0.9904 -0.1107
vn -0.0240 -0.9687 -0.2471
vn -0.1004 -0.9927 -0.0670
vn 0.3768 -0.7174 0.5860
vn 0.4235 -0.5259 0.7376
vn 0.3602 -0.7614 0.5390
vn -0.7221 -0.6916 -0.0176
vn -0.7117 -0.7025 -0.0017
vn -0.7249 -0.6885 -0.0219
vn -0.4835 -0.8664 0.1250
vn -0.6274 -0.7786 -0.0087
vn -0.4503 -0.8798 0.1526
vn 0.3443 -0.7830 0.5181
vn 0.3930 -0.6394 0.6608
vn 0.3318 -0.8097 0.4841
vn 0.0000 -0.9829 -0.1841
vn 0.0000 -0.9829 -0.1842
vn -0.3443 -0.7830 0.5181
vn -0.3930 -0.6394 0.6608
vn -0.4064 -0.5808 0.7053
vn 0.4835 -0.8664 0.1250
vn 0.6274 -0.7786 -0.0087
vn 0.6717 -0.7386 -0.0563
vn -0.2901 -0.9562 0.0399
vn -0.4481 -0.8912 -0.0705
vn -0.2599 -0.9638 0.0600
vn 0.2231 -0.9434 0.2452
vn 0.2884 -0.8610 0.4189
vn 0.2102 -0.9544 0.2122
vn 0.0232 -0.9867 -0.1606
vn 0.0062 -0.9732 -0.2298
vn 0.0000 -0.9670 -0.2548
vn -0.2231 -0.9434 0.2452
vn -0.2884 -0.8610 0.4189
vn -0.3091 -0.8226 0.4774
vn 0.3668 -0.9302 -0.0124
vn 0.4655 -0.8811 -0.0833
vn 0.5005 -0.8588 -0.1095
vn -0.4320 -0.8919 -0.1337
vn -0.4439 -0.8847 -0.1422
vn -0.4295 -0.8934 -0.1319
vn 0.1950 -0.9655 0.1726
vn 0.2445 -0.9192 0.3088
vn 0.1848 -0.9719 0.1457
vn -0.0557 -0.9657 -0.2536
vn -0.0161 -0.9200 -0.3917
vn -0.0633 -0.9721 -0.2261
vn -0.2047 -0.9630 0.1754
vn -0.2581 -0.9100 0.3245
vn -0.2776 -0.8815 0.3821
vn 0.2592 -0.9655 -0.0250
vn 0.3793 -0.9192 -0.1061
vn 0.4254 -0.8944 -0.1382
vn 0.0000 0.9431 -0.3326
vn 0.5867 -0.2108 -0.7819
vn -0.9276 0.3084 0.2108
vn 0.9276 0.3084 0.2108
vn -0.5867 -0.2108 -0.7819
vn 0.8971 0.3820 0.2220
vn 0.8889 0.3990 0.2250
vn 0.9021 0.3713 0.2200
vn -0.5290 0.4246 -0.7347
vn -0.5324 0.4611 -0.7099
vn -0.5336 0.4775 -0.6981
vn -0.0061 0.3871 0.9220
vn -0.0075 0.3841 0.9233
vn -0.0083 0.3825 0.9239
vn 0.5290 0.4246 -0.7347
vn 0.5324 0.4611 -0.7099
vn 0.5265 0.4024 -0.7489
vn -0.8974 0.3758 0.2311
vn -0.8882 0.3948 0.2350
vn -0.8833 0.4045 0.2370
vn -0.9157 0.3817 0.1256
vn -0.9184 0.3737 0.1303
vn -0.9184 0.3734 0.1304
vn 0.5966 0.0550 -0.8007
vn 0.5977 0.0454 -0.8004
vn 0.5977 0.0451 -0.8004
vn -0.0099 0.6273 0.7787
vn -0.0097 0.6288 0.7775
vn -0.5966 0.0550 -0.8007
vn -0.5977 0.0454 -0.8004
vn -0.5965 0.0554 -0.8007
vn 0.9009 0.3786 0.2122
vn 0.8993 0.3838 0.2099
vn 0.9010 0.3783 0.2123
vn -0.1820 -0.8330 0.5225
vn -0.1866 -0.8312 0.5237
vn -0.1870 -0.8311 0.5238
vn 0.0134 -0.9979 0.0632
vn 0.0159 -0.9981 0.0591
vn 0.0162 -0.9981 0.0587
vn -0.1412 -0.8231 0.5501
vn -0.1417 -0.8205 0.5538
vn -0.1411 -0.8232 0.5499
vn -0.0137 -0.9979 0.0628
vn -0.0163 -0.9981 0.0586
vn -0.0136 -0.9979 0.0630
vn 0.1388 -0.9034 0.4057
vn 0.1376 -0.9037 0.4055
vn 0.1375 -0.9037 0.4054
vn 0.8891 0.4312 0.1538
vn 0.8891 0.4311 0.1538
vn -0.5760 0.2050 -0.7913
vn -0.5804 0.1794 -0.7943
vn -0.5759 0.2058 -0.7912
vn 0.5760 0.2050 -0.7913
vn 0.5804 0.1794 -0.7943
vn 0.5805 0.1788 -0.7944
vn -0.8891 0.4312 0.1538
vn 0.3933 -0.8181 0.4196
vn 0.3931 -0.8182 0.4195
vn -0.2081 -0.9491 -0.2363
vn -0.2113 -0.9471 -0.2415
vn -0.2080 -0.9492 -0.2361
vn 0.0000 -0.7460 0.6660
vn 0.2081 -0.9491 -0.2363
vn 0.2113 -0.9471 -0.2415
vn 0.2116 -0.9469 -0.2420
vn -0.3933 -0.8181 0.4196
vn -0.3931 -0.8182 0.4195
vn -0.8960 0.3696 0.2461
vn -0.8833 0.4032 0.2393
vn -0.8830 0.4040 0.2392
vn 0.5349 0.4753 -0.6986
vn 0.5531 0.4127 -0.7237
vn 0.5534 0.4115 -0.7242
vn -0.0085 0.3884 0.9215
vn -0.0086 0.3827 0.9238
vn -0.0086 0.3826 0.9239
vn -0.5349 0.4753 -0.6986
vn -0.5531 0.4128 -0.7237
vn -0.5343 0.4772 -0.6977
vn 0.8959 0.3768 0.2352
vn 0.8848 0.4061 0.2285
vn 0.8962 0.3760 0.2354
vn -0.4039 -0.8813 0.2452
vn -0.3778 -0.8950 0.2372
vn -0.3768 -0.8955 0.2370
vn 0.1814 -0.9331 -0.3106
vn 0.2017 -0.9187 -0.3396
vn 0.2024 -0.9182 -0.3406
vn 0.0227 -0.8467 0.5316
vn 0.0228 -0.8448 0.5345
vn 0.0228 -0.8448 0.5347
vn -0.1814 -0.9331 -0.3106
vn -0.2017 -0.9187 -0.3396
vn -0.1811 -0.9333 -0.3101
vn 0.4050 -0.8739 0.2689
vn 0.3825 -0.8859 0.2624
vn 0.4053 -0.8737 0.2690
vn 0.8565 0.4374 0.2741
vn 0.8496 0.4518 0.2722
vn 0.8566 0.4371 0.2741
vn -0.5361 0.4941 -0.6844
vn -0.5461 0.4599 -0.7002
vn -0.5359 0.4948 -0.6841
vn 0.0300 0.4698 0.8822
vn 0.0293 0.4502 0.8925
vn 0.0300 0.4703 0.8820
vn 0.5393 0.4929 -0.6828
vn 0.5496 0.4565 -0.6997
vn 0.5498 0.4560 -0.6999
vn -0.8503 0.4662 0.2441
vn -0.8515 0.4638 0.2446
vn -0.8515 0.4637 0.2446
vn 0.6750 -0.7023 0.2263
vn 0.6708 -0.7067 0.2248
vn 0.6751 -0.7022 0.2263
vn -0.3838 -0.6989 -0.6035
vn -0.3889 -0.6903 -0.6101
vn -0.3838 -0.6990 -0.6034
vn -0.0437 -0.6882 0.7242
vn -0.0435 -0.6827 0.7294
vn -0.0437 -0.6883 0.7242
vn 0.3785 -0.7006 -0.6049
vn 0.3840 -0.6913 -0.6121
vn 0.3842 -0.6911 -0.6122
vn -0.6737 -0.6893 0.2665
vn -0.6742 -0.6888 0.2666
vn 0.8357 0.4926 0.2428
vn 0.8477 0.4694 0.2473
vn 0.8354 0.4931 0.2427
vn -0.5334 0.4926 -0.6876
vn -0.5404 0.4694 -0.6983
vn -0.5333 0.4931 -0.6874
vn 0.5334 0.4926 -0.6876
vn 0.5404 0.4694 -0.6983
vn 0.5405 0.4690 -0.6984
vn -0.8357 0.4926 0.2428
vn -0.8477 0.4694 0.2473
vn -0.8478 0.4690 0.2473
vn 0.1562 -0.9818 0.1077
vn 0.1751 -0.9779 0.1140
vn 0.1561 -0.9819 0.1077
vn -0.0631 -0.9818 -0.1790
vn -0.0746 -0.9779 -0.1951
vn -0.0630 -0.9819 -0.1788
vn -0.0000 -0.9756 0.2196
vn 0.0631 -0.9818 -0.1790
vn 0.0746 -0.9779 -0.1951
vn 0.0749 -0.9779 -0.1954
vn -0.1562 -0.9818 0.1077
vn -0.1751 -0.9779 0.1140
vn -0.1754 -0.9779 0.1141
vn -0.2974 -0.9539 -0.0394
vn 0.9075 0.3801 0.1786
vn 0.2174 -0.9539 0.2067
vn -0.1364 -0.9727 0.1878
vn 0.2208 -0.9727 -0.0717
vn -0.5971 0.0448 -0.8009
vn -0.0095 0.6289 0.7774
vn 0.5548 0.0575 -0.8300
vn -0.8977 0.4085 0.1652
vn -0.8226 0.5020 0.2673
vn -0.8488 0.4674 0.2473
vn -0.8846 0.4218 0.1991
vn -0.8889 0.4314 0.1541
vn 0.5084 0.5020 -0.6997
vn 0.5389 0.4937 -0.6825
vn 0.5404 0.3501 -0.7651
vn 0.5159 0.2157 -0.8290
vn 0.0285 0.4497 0.8927
vn 0.0000 0.5341 0.8454
vn -0.5399 0.4688 -0.6991
vn -0.5123 0.4455 -0.7342
vn -0.5227 0.2869 -0.8028
vn -0.5795 0.1783 -0.7952
vn 0.8477 0.4688 0.2482
vn 0.8496 0.4521 0.2716
vn 0.8767 0.4387 0.1973
vn 0.4395 -0.8450 0.3046
vn -0.3628 -0.7579 0.5422
vn 0.0000 -0.9535 -0.3013
vn 0.4356 -0.4338 0.7887
vn -0.7063 -0.7078 0.0063
vn -0.6717 -0.7386 -0.0563
vn 0.4064 -0.5808 0.7053
vn -0.3318 -0.8097 0.4841
vn 0.4503 -0.8798 0.1526
vn -0.5005 -0.8588 -0.1095
vn 0.3091 -0.8226 0.4774
vn 0.0260 -0.9885 -0.1491
vn -0.2102 -0.9544 0.2122
vn 0.3475 -0.9377 0.0010
vn -0.4491 -0.8815 -0.1459
vn 0.2629 -0.8944 0.3619
vn 0.0000 -0.8955 -0.4450
vn -0.1935 -0.9703 0.1454
vn 0.2352 -0.9719 -0.0092
vn 0.8848 0.4072 0.2265
vn -0.5265 0.4024 -0.7489
vn -0.0050 0.3895 0.9210
vn 0.5336 0.4775 -0.6981
vn -0.9032 0.3633 0.2284
vn -0.9156 0.3821 0.1254
vn 0.5965 0.0554 -0.8007
vn -0.0097 0.6289 0.7774
vn -0.5977 0.0451 -0.8004
vn 0.8992 0.3840 0.2098
vn -0.1818 -0.8331 0.5224
vn 0.0133 -0.9979 0.0634
vn -0.1417 -0.8203 0.5542
vn -0.0166 -0.9982 0.0582
vn -0.5805 0.1788 -0.7944
vn 0.5759 0.2058 -0.7912
vn -0.2116 -0.9469 -0.2420
vn 0.2080 -0.9492 -0.2361
vn -0.8964 0.3686 0.2463
vn 0.5343 0.4772 -0.6977
vn -0.0085 0.3885 0.9214
vn -0.5534 0.4115 -0.7241
vn 0.8846 0.4067 0.2283
vn -0.4043 -0.8811 0.2453
vn 0.1811 -0.9333 -0.3101
vn 0.0227 -0.8468 0.5315
vn -0.2024 -0.9182 -0.3406
vn 0.3817 -0.8863 0.2622
vn 0.8495 0.4520 0.2722
vn -0.5462 0.4594 -0.7004
vn 0.0293 0.4499 0.8926
vn 0.5391 0.4937 -0.6824
vn 0.6707 -0.7068 0.2248
vn -0.3891 -0.6901 -0.6102
vn -0.0435 -0.6826 0.7295
vn 0.3784 -0.7007 -0.6048
vn 0.8478 0.4690 0.2473
vn -0.5405 0.4690 -0.6984
vn 0.5333 0.4931 -0.6874
vn -0.8354 0.4931 0.2427
vn 0.1754 -0.9779 0.1141
vn -0.0749 -0.9779 -0.1954
vn 0.0630 -0.9819 -0.1788
vn -0.1561 -0.9819 0.1077
usemtl Material.005
s 1
f 2//1 4//1 1//1
f 4//2 5//2 6//2
f 5//3 8//3 6//3
f 7//4 10//4 8//4
f 9//5 1//5 10//5
f 12//6 13//6 14//6
f 15//7 1//7 11//7
f 14//8 10//8 15//8
f 6//9 14//9 13//9
f 4//10 13//10 12//10
f 1//11 12//11 11//11
f 2//1 3//1 4//1
f 4//2 3//2 5//2
f 5//3 7//3 8//3
f 7//4 9//4 10//4
f 9//5 2//5 1//5
f 15//6 11//6 14//6
f 11//6 12//6 14//6
f 15//7 10//7 1//7
f 14//8 8//8 10//8
f 6//9 8//9 14//9
f 4//10 6//10 13//10
f 1//11 4//11 12//11
usemtl Material.006
f 3//12 17//13 5//14
f 19//15 21//16 18//17
f 9//18 23//19 2//20
f 3//21 23//22 16//23
f 5//24 24//24 7//24
f 9//25 24//26 22//27
f 21//28 27//28 25//28
f 28//29 30//30 31//31
f 32//32 21//33 25//34
f 28//35 20//36 19//37
f 32//38 30//39 29//40
f 34//41 36//42 33//43
f 38//44 40//45 37//46
f 42//47 44//48 41//49
f 46//50 48//51 45//52
f 50//53 52//54 49//55
f 53//56 55//57 56//58
f 57//59 59//60 60//61
f 62//62 64//63 61//64
f 34//65 66//65 35//65
f 38//66 68//67 39//68
f 69//69 43//70 42//71
f 71//72 47//72 46//72
f 50//73 36//74 51//75
f 37//76 55//77 54//78
f 41//79 59//80 58//81
f 62//82 48//83 63//84
f 65//85 52//86 66//87
f 67//88 56//89 68//90
f 69//91 60//92 70//93
f 71//94 64//95 72//96
f 47//97 74//98 48//99
f 63//100 76//101 64//102
f 47//103 77//104 73//105
f 63//106 74//107 75//108
f 72//109 76//110 77//111
f 70//112 78//113 79//114
f 59//115 80//116 81//117
f 70//118 82//119 43//119
f 59//120 78//121 60//122
f 43//123 80//124 44//125
f 68//126 83//127 84//128
f 55//129 85//130 86//131
f 68//132 87//133 39//134
f 55//135 83//136 56//137
f 39//138 85//139 40//140
f 66//141 88//142 89//143
f 51//144 90//145 91//146
f 35//147 89//148 92//149
f 51//150 88//151 52//152
f 35//153 90//154 36//155
f 94//156 27//156 26//156
f 31//157 93//157 20//157
f 30//158 27//158 95//158
f 20//159 26//159 21//159
f 31//160 95//160 94//160
f 96//161 57//162 69//163
f 99//164 58//165 98//166
f 96//167 42//168 100//169
f 97//170 58//171 57//172
f 100//173 41//174 99//175
f 73//176 102//177 74//178
f 75//179 104//180 76//181
f 73//182 105//183 101//182
f 75//184 102//185 103//186
f 77//187 104//188 105//189
f 101//190 29//191 102//192
f 103//193 19//194 104//195
f 101//196 18//197 32//198
f 103//199 29//200 28//201
f 104//202 18//203 105//204
f 79//205 106//206 107//205
f 81//207 108//208 109//209
f 82//72 107//72 110//72
f 81//210 106//211 78//212
f 82//213 108//52 80//52
f 107//214 61//215 71//214
f 109//216 45//217 62//218
f 107//219 46//219 110//219
f 109//220 61//221 106//222
f 110//223 45//224 108//224
f 87//225 112//226 85//227
f 86//228 114//229 83//230
f 84//231 111//232 87//233
f 86//234 112//235 113//236
f 84//237 114//238 115//239
f 111//240 99//241 112//242
f 113//243 97//244 114//245
f 115//246 100//247 111//248
f 113//249 99//250 98//251
f 115//252 97//253 96//254
f 89//255 116//256 117//257
f 91//258 118//259 119//260
f 92//261 117//262 120//263
f 91//264 116//265 88//266
f 92//267 118//268 90//269
f 117//270 53//271 67//272
f 119//273 37//274 54//275
f 120//276 67//277 38//278
f 119//279 53//280 116//281
f 120//282 37//283 118//283
f 17//284 121//285 122//286
f 23//287 123//288 124//289
f 24//65 122//65 125//65
f 23//290 121//291 16//292
f 24//293 123//294 22//295
f 122//296 49//297 65//298
f 124//299 33//300 50//301
f 122//302 34//302 125//302
f 124//303 49//304 121//305
f 125//306 33//307 123//308
f 3//12 16//309 17//13
f 19//15 20//310 21//16
f 9//18 22//311 23//19
f 3//21 2//312 23//22
f 5//24 17//24 24//24
f 9//25 7//313 24//26
f 21//28 26//28 27//28
f 28//29 29//314 30//30
f 32//32 18//315 21//33
f 28//35 31//316 20//36
f 32//38 25//317 30//39
f 34//41 35//318 36//42
f 38//44 39//319 40//45
f 42//47 43//320 44//48
f 46//50 47//321 48//51
f 50//53 51//322 52//54
f 53//56 54//323 55//57
f 57//59 58//324 59//60
f 62//62 63//325 64//63
f 34//65 65//65 66//65
f 38//66 67//326 68//67
f 69//69 70//327 43//70
f 71//72 72//72 47//72
f 50//73 33//328 36//74
f 37//76 40//329 55//77
f 41//79 44//330 59//80
f 62//82 45//331 48//83
f 65//85 49//332 52//86
f 67//88 53//333 56//89
f 69//91 57//334 60//92
f 71//94 61//206 64//95
f 47//97 73//335 74//98
f 63//100 75//336 76//101
f 47//103 72//337 77//104
f 63//106 48//338 74//107
f 72//109 64//339 76//110
f 70//112 60//340 78//113
f 59//115 44//341 80//116
f 70//118 79//118 82//119
f 59//120 81//342 78//121
f 43//123 82//343 80//124
f 68//126 56//344 83//127
f 55//129 40//345 85//130
f 68//132 84//346 87//133
f 55//135 86//347 83//136
f 39//138 87//348 85//139
f 66//141 52//349 88//142
f 51//144 36//350 90//145
f 35//147 66//351 89//148
f 51//150 91//352 88//151
f 35//153 92//353 90//154
f 26//156 93//156 94//156
f 94//156 95//156 27//156
f 31//157 94//157 93//157
f 30//158 25//158 27//158
f 20//159 93//159 26//159
f 31//160 30//160 95//160
f 96//161 97//354 57//162
f 99//164 41//355 58//165
f 96//167 69//356 42//168
f 97//170 98//357 58//171
f 100//173 42//358 41//174
f 73//176 101//359 102//177
f 75//179 103//360 104//180
f 73//182 77//361 105//183
f 75//184 74//362 102//185
f 77//187 76//363 104//188
f 101//190 32//364 29//191
f 103//193 28//365 19//194
f 101//196 105//366 18//197
f 103//199 102//367 29//200
f 104//202 19//202 18//203
f 79//205 78//206 106//206
f 81//207 80//368 108//208
f 82//72 79//72 107//72
f 81//210 109//369 106//211
f 82//213 110//213 108//52
f 107//214 106//215 61//215
f 109//216 108//370 45//217
f 107//219 71//219 46//219
f 109//220 62//371 61//221
f 110//223 46//223 45//224
f 87//225 111//372 112//226
f 86//228 113//373 114//229
f 84//231 115//374 111//232
f 86//234 85//375 112//235
f 84//237 83//376 114//238
f 111//240 100//377 99//241
f 113//243 98//378 97//244
f 115//246 96//379 100//247
f 113//249 112//380 99//250
f 115//252 114//381 97//253
f 89//255 88//382 116//256
f 91//258 90//383 118//259
f 92//261 89//384 117//262
f 91//264 119//385 116//265
f 92//267 120//267 118//268
f 117//270 116//386 53//271
f 119//273 118//387 37//274
f 120//276 117//388 67//277
f 119//279 54//389 53//280
f 120//282 38//282 37//283
f 17//284 16//390 121//285
f 23//287 22//391 123//288
f 24//65 17//65 122//65
f 23//290 124//392 121//291
f 24//293 125//393 123//294
f 122//296 121//394 49//297
f 124//299 123//395 33//300
f 122//302 65//302 34//302
f 124//303 50//396 49//304
f 125//306 34//397 33//307
